<svg viewBox="0 0 41 41" fill="none" xmlns="http://www.w3.org/2000/svg">
<path d="M22.4406 8.82703H18.2078C17.9257 8.82703 17.6811 8.91869 17.4742 9.10203C17.2672 9.28536 17.145 9.51453 17.1073 9.78953L16.7687 12.347C16.5242 12.4387 16.2939 12.5487 16.0779 12.677C15.8612 12.8054 15.6494 12.9429 15.4425 13.0895L12.9875 12.0995C12.7241 12.0079 12.4607 11.9987 12.1974 12.072C11.934 12.1454 11.727 12.3012 11.5766 12.5395L9.4884 16.087C9.3379 16.3254 9.29087 16.582 9.34731 16.857C9.40374 17.132 9.54483 17.352 9.77058 17.517L11.887 19.0845C11.8681 19.2129 11.8587 19.3368 11.8587 19.4563V20.1988C11.8587 20.3176 11.8681 20.4412 11.887 20.5695L9.77058 22.137C9.54483 22.302 9.40374 22.522 9.34731 22.797C9.29087 23.072 9.3379 23.3287 9.4884 23.567L11.5766 27.1145C11.7082 27.3712 11.9103 27.5318 12.1827 27.5963C12.4558 27.6601 12.7241 27.6462 12.9875 27.5545L15.4425 26.5645C15.6494 26.7112 15.8657 26.8487 16.0915 26.977C16.3172 27.1054 16.543 27.2154 16.7687 27.307L17.1073 29.8645C17.145 30.1395 17.2672 30.3687 17.4742 30.552C17.6811 30.7354 17.9257 30.827 18.2078 30.827H22.4406C22.7228 30.827 22.9673 30.7354 23.1743 30.552C23.3812 30.3687 23.5035 30.1395 23.5411 29.8645L23.8797 27.307C24.1243 27.2154 24.3549 27.1054 24.5716 26.977C24.7876 26.8487 24.999 26.7112 25.206 26.5645L27.661 27.5545C27.9243 27.6462 28.1877 27.6554 28.4511 27.582C28.7145 27.5087 28.9214 27.3529 29.0719 27.1145L31.16 23.567C31.3105 23.3287 31.3576 23.072 31.3011 22.797C31.2447 22.522 31.1036 22.302 30.8779 22.137L28.7615 20.5695C28.7803 20.4412 28.7897 20.3176 28.7897 20.1988V19.4563C28.7897 19.3368 28.7709 19.2129 28.7333 19.0845L30.8496 17.517C31.0754 17.352 31.2165 17.132 31.2729 16.857C31.3294 16.582 31.2823 16.3254 31.1318 16.087L29.0437 12.567C28.8932 12.3287 28.6817 12.1681 28.4093 12.0852C28.1362 12.0031 27.8679 12.0079 27.6045 12.0995L25.206 13.0895C24.999 12.9429 24.7827 12.8054 24.557 12.677C24.3312 12.5487 24.1055 12.4387 23.8797 12.347L23.5411 9.78953C23.5035 9.51453 23.3812 9.28536 23.1743 9.10203C22.9673 8.91869 22.7228 8.82703 22.4406 8.82703Z" stroke="currentColor" stroke-width="2"/>
<circle cx="3.34783" cy="3.34783" r="3.34783" transform="matrix(1 0 0 -1 16.9766 23.1748)" stroke="currentColor" stroke-width="2"/>
</svg>
