<svg viewBox="0 0 41 41" fill="none" xmlns="http://www.w3.org/2000/svg">
<mask id="path-1-inside-1_261_23143" fill="white">
<path d="M17.2345 26.4272C16.8439 26.8177 16.2108 26.8177 15.8202 26.4272L13.6989 24.3059C13.3084 23.9153 13.3084 23.2822 13.6989 22.8916L27.4875 9.10305C28.4638 8.12674 30.0467 8.12674 31.023 9.10305C31.9993 10.0794 31.9993 11.6623 31.023 12.6386L17.2345 26.4272Z"/>
</mask>
<path d="M17.2345 26.4272C16.8439 26.8177 16.2108 26.8177 15.8202 26.4272L13.6989 24.3059C13.3084 23.9153 13.3084 23.2822 13.6989 22.8916L27.4875 9.10305C28.4638 8.12674 30.0467 8.12674 31.023 9.10305C31.9993 10.0794 31.9993 11.6623 31.023 12.6386L17.2345 26.4272Z" stroke="currentColor" stroke-width="4" mask="url(#path-1-inside-1_261_23143)"/>
<path d="M12.5811 26.0162L14.1099 27.545L11.2048 28.9213L12.5811 26.0162Z" stroke="currentColor" stroke-opacity="0.5" stroke-width="2" stroke-linecap="round"/>
</svg>
