<svg viewBox="0 0 41 41" fill="none" xmlns="http://www.w3.org/2000/svg">
<path d="M29.3992 14.3136C29.3992 16.1735 27.8915 17.6812 26.0316 17.6812C24.1718 17.6812 22.6641 16.1735 22.6641 14.3136C22.6641 12.4538 24.1718 10.946 26.0316 10.946C27.8915 10.946 29.3992 12.4538 29.3992 14.3136Z" stroke="currentColor" stroke-width="2.02054"/>
<path d="M19.1109 23.4167L19.8607 22.9168C21.6877 21.6988 23.8344 21.0488 26.0302 21.0488C28.2261 21.0488 30.3728 21.6988 32.1998 22.9168L32.9496 23.4167C33.8864 24.0412 34.4492 25.0927 34.4492 26.2187V27.8962C34.4492 28.7641 33.7456 29.4677 32.8776 29.4677H26.0302H19.1829C18.3149 29.4677 17.6113 28.7641 17.6113 27.8962V26.2187C17.6113 25.0927 18.1741 24.0412 19.1109 23.4167Z" stroke="currentColor" stroke-width="2.02054" stroke-linecap="round" stroke-linejoin="round"/>
<path d="M17.9812 14.3136C17.9812 16.1735 16.4735 17.6812 14.6137 17.6812C12.7538 17.6812 11.2461 16.1735 11.2461 14.3136C11.2461 12.4538 12.7538 10.946 14.6137 10.946C16.4735 10.946 17.9812 12.4538 17.9812 14.3136Z" stroke="currentColor" stroke-width="2.02054"/>
<path d="M14.6123 21.0488C12.4165 21.0488 10.2698 21.6988 8.44272 22.9168L7.69294 23.4167C6.75608 24.0412 6.19336 25.0927 6.19336 26.2187V27.8962C6.19336 28.7641 6.89696 29.4677 7.76489 29.4677H13.8258" stroke="currentColor" stroke-width="2.02054" stroke-linecap="round" stroke-linejoin="round"/>
</svg>
