<svg fill="none" height="100%" width="100%" viewBox="190 190 320 320" xmlns:xlink="http://www.w3.org/1999/xlink" xmlns="http://www.w3.org/2000/svg"><defs><linearGradient id="i0" gradientUnits="userSpaceOnUse" spreadMethod="pad" x2="116.383" y2="-72.967" x1="-82.698" y1="66.675"><stop offset="0%" stop-color="#0036ff" /><stop offset="49.9%" stop-color="#631bff" /><stop offset="100%" stop-color="#c600ff" /></linearGradient></defs><g id="i1"><g transform="translate(350,336)"><g transform="scale(1,1)"><g transform="translate(0,0)"><g id="i2"><g transform="translate(0,14)"><g transform="rotate(0)"><g transform="scale(1,1) translate(10,10)"><g><g transform="translate(-10,-10)"><g id="i3" transform="rotate(0)"><ellipse ry="150" rx="150" cy="0" cx="0" stroke-width="0" stroke="#ffffff" fill="url(#i0)" /></g></g></g></g></g></g></g></g></g></g></g><g id="i1"><g transform="translate(350,336)"><g transform="scale(1,1)"><g transform="translate(0,0)"><g transform="matrix(1,0,0,1,10,24)" id="i4"><g><g transform="translate(-10,-10)"><g id="i3" transform="scale(1,1)"><ellipse ry="125" rx="125" cy="0" cx="0" stroke-width="0" stroke="#ffffff" fill="none" /></g></g></g></g></g></g></g></g><g id="i1"><g transform="translate(350,336)"><g transform="scale(1,1)"><g transform="translate(0,0)"><g transform="matrix(1,0,0,1,10,24)" id="i5"><g><g transform="translate(-10,-10)"><g id="i3" transform="scale(1,1)"><ellipse stroke-dashoffset="-75" stroke-dasharray="3 97" pathLength="100" ry="125" rx="125" cy="0" cx="0" stroke-width="5" stroke="#ffffff"></ellipse></g></g></g></g></g></g></g></g><g id="i1"><g transform="translate(350,336)"><g transform="scale(1,1)"><g transform="translate(0,0)"><g stroke-dasharray="100 0" pathLength="100"><g id="i6" transform="translate(12,0)"><path stroke-linecap="round" stroke-width="20" stroke="#ffffff" fill="#000000" d="M-50,-17C-50,-17,-50,20,-50,20" /></g></g><g stroke-dasharray="100 0" pathLength="100"><g id="i7" transform="translate(89,0)"><path stroke-linecap="round" stroke-width="20" stroke="#ffffff" fill="#000000" d="M-50,-17C-50,-17,-50,20,-50,20" /></g></g></g></g></g></g><g id="i1"><g transform="translate(350,336)"><g transform="scale(1,1)"><g transform="translate(0,0)"><g opacity="0" id="i8"><g transform="translate(1,22) scale(1,1) translate(-1,-22)"><g stroke-dasharray="100 0" pathLength="100"><g id="i6" transform="translate(12,0)"><path d="M-9,-36C-9,-36,-10,31,-10,31" stroke-linecap="round" stroke-width="20" stroke="#fff000" fill="#000000"></path></g></g><g stroke-dasharray="100 0" pathLength="100"><g id="i7" transform="translate(89,0)"><path d="M-86.5,64.5C-86.5,64.5,-88,65,-88,65" stroke-linecap="round" stroke-width="20" stroke="#fff000" fill="#000000"></path></g></g></g></g></g></g></g></g><g id="i1"><g transform="translate(350,336)"><g transform="scale(1,1)"><g transform="translate(0,0)"><g opacity="0" id="i9"><g transform="translate(0.5,14.5)"><g transform="scale(1.001,0.999)"><g transform="translate(-0.5,-14.5)"><g stroke-dashoffset="-75" stroke-dasharray="25 75" pathLength="100" id="i3" transform="matrix(1,0,0,1,0.5,14.5)"><ellipse ry="49.5" rx="49.5" cy="0" cx="0" stroke-width="15" stroke="#ffffff" /></g></g></g></g></g></g></g></g></g></svg>